<mxfile host="65bd71144e" modified="2021-02-18T14:13:52.018Z" agent="5.0 (Windows NT 10.0; Win64; x64) AppleWebKit/537.36 (KHTML, like Gecko) Code/1.53.2 Chrome/87.0.4280.141 Electron/11.2.1 Safari/537.36" etag="SelUgY_dVTaXEh7ibGYk" version="14.2.4" type="embed" pages="3">
    <diagram id="EGHqpokKimT9EEx4qxNU" name="工厂模式">
        <mxGraphModel dx="837" dy="615" grid="0" gridSize="10" guides="1" tooltips="1" connect="1" arrows="1" fold="1" page="1" pageScale="1" pageWidth="1654" pageHeight="1169" math="0" shadow="0">
            <root>
                <mxCell id="6zucgHd-ktdFoNuuFFxh-0"/>
                <mxCell id="6zucgHd-ktdFoNuuFFxh-1" parent="6zucgHd-ktdFoNuuFFxh-0"/>
                <mxCell id="6zucgHd-ktdFoNuuFFxh-2" value="&lt;&lt;abstract&gt;&gt;&#10;Product" style="swimlane;fontStyle=1;align=center;verticalAlign=top;childLayout=stackLayout;horizontal=1;startSize=46;horizontalStack=0;resizeParent=1;resizeParentMax=0;resizeLast=0;collapsible=1;marginBottom=0;fontSize=16;" parent="6zucgHd-ktdFoNuuFFxh-1" vertex="1">
                    <mxGeometry x="26" y="82" width="160" height="54" as="geometry"/>
                </mxCell>
                <mxCell id="6zucgHd-ktdFoNuuFFxh-4" value="" style="line;strokeWidth=1;fillColor=none;align=left;verticalAlign=middle;spacingTop=-1;spacingLeft=3;spacingRight=3;rotatable=0;labelPosition=right;points=[];portConstraint=eastwest;fontSize=16;" parent="6zucgHd-ktdFoNuuFFxh-2" vertex="1">
                    <mxGeometry y="46" width="160" height="8" as="geometry"/>
                </mxCell>
                <mxCell id="SLRHL123r4QaGUUrdpwf-0" value="OneProduct" style="swimlane;fontStyle=1;align=center;verticalAlign=top;childLayout=stackLayout;horizontal=1;startSize=26;horizontalStack=0;resizeParent=1;resizeParentMax=0;resizeLast=0;collapsible=1;marginBottom=0;fontSize=16;" parent="6zucgHd-ktdFoNuuFFxh-1" vertex="1">
                    <mxGeometry x="223" y="15" width="160" height="34" as="geometry"/>
                </mxCell>
                <mxCell id="SLRHL123r4QaGUUrdpwf-1" value="" style="line;strokeWidth=1;fillColor=none;align=left;verticalAlign=middle;spacingTop=-1;spacingLeft=3;spacingRight=3;rotatable=0;labelPosition=right;points=[];portConstraint=eastwest;fontSize=16;" parent="SLRHL123r4QaGUUrdpwf-0" vertex="1">
                    <mxGeometry y="26" width="160" height="8" as="geometry"/>
                </mxCell>
                <mxCell id="SLRHL123r4QaGUUrdpwf-2" value="TwoProduct" style="swimlane;fontStyle=1;align=center;verticalAlign=top;childLayout=stackLayout;horizontal=1;startSize=26;horizontalStack=0;resizeParent=1;resizeParentMax=0;resizeLast=0;collapsible=1;marginBottom=0;fontSize=16;" parent="6zucgHd-ktdFoNuuFFxh-1" vertex="1">
                    <mxGeometry x="221" y="156" width="160" height="34" as="geometry"/>
                </mxCell>
                <mxCell id="SLRHL123r4QaGUUrdpwf-3" value="" style="line;strokeWidth=1;fillColor=none;align=left;verticalAlign=middle;spacingTop=-1;spacingLeft=3;spacingRight=3;rotatable=0;labelPosition=right;points=[];portConstraint=eastwest;fontSize=16;" parent="SLRHL123r4QaGUUrdpwf-2" vertex="1">
                    <mxGeometry y="26" width="160" height="8" as="geometry"/>
                </mxCell>
                <mxCell id="SLRHL123r4QaGUUrdpwf-4" value="Extends" style="endArrow=block;endSize=16;endFill=0;html=1;strokeWidth=2;fontSize=16;" parent="6zucgHd-ktdFoNuuFFxh-1" source="SLRHL123r4QaGUUrdpwf-2" target="6zucgHd-ktdFoNuuFFxh-2" edge="1">
                    <mxGeometry x="-0.3691" y="13" width="160" relative="1" as="geometry">
                        <mxPoint x="63" y="229" as="sourcePoint"/>
                        <mxPoint x="223" y="229" as="targetPoint"/>
                        <Array as="points">
                            <mxPoint x="106" y="173"/>
                        </Array>
                        <mxPoint as="offset"/>
                    </mxGeometry>
                </mxCell>
                <mxCell id="SLRHL123r4QaGUUrdpwf-5" value="Extends" style="endArrow=block;endSize=16;endFill=0;html=1;strokeWidth=2;fontSize=16;" parent="6zucgHd-ktdFoNuuFFxh-1" source="SLRHL123r4QaGUUrdpwf-0" target="6zucgHd-ktdFoNuuFFxh-2" edge="1">
                    <mxGeometry x="-0.4765" y="15" width="160" relative="1" as="geometry">
                        <mxPoint x="231" y="183" as="sourcePoint"/>
                        <mxPoint x="115.21518987341767" y="121" as="targetPoint"/>
                        <Array as="points">
                            <mxPoint x="105" y="31"/>
                        </Array>
                        <mxPoint as="offset"/>
                    </mxGeometry>
                </mxCell>
                <mxCell id="SLRHL123r4QaGUUrdpwf-6" value="ProductSimpleFactory" style="swimlane;fontStyle=1;align=center;verticalAlign=top;childLayout=stackLayout;horizontal=1;startSize=26;horizontalStack=0;resizeParent=1;resizeParentMax=0;resizeLast=0;collapsible=1;marginBottom=0;fontSize=16;" parent="6zucgHd-ktdFoNuuFFxh-1" vertex="1">
                    <mxGeometry x="468" y="78" width="269" height="60" as="geometry"/>
                </mxCell>
                <mxCell id="SLRHL123r4QaGUUrdpwf-8" value="" style="line;strokeWidth=1;fillColor=none;align=left;verticalAlign=middle;spacingTop=-1;spacingLeft=3;spacingRight=3;rotatable=0;labelPosition=right;points=[];portConstraint=eastwest;fontSize=16;" parent="SLRHL123r4QaGUUrdpwf-6" vertex="1">
                    <mxGeometry y="26" width="269" height="8" as="geometry"/>
                </mxCell>
                <mxCell id="SLRHL123r4QaGUUrdpwf-9" value="Product createProduct(String type)" style="text;strokeColor=none;fillColor=none;align=left;verticalAlign=top;spacingLeft=4;spacingRight=4;overflow=hidden;rotatable=0;points=[[0,0.5],[1,0.5]];portConstraint=eastwest;fontSize=16;" parent="SLRHL123r4QaGUUrdpwf-6" vertex="1">
                    <mxGeometry y="34" width="269" height="26" as="geometry"/>
                </mxCell>
                <mxCell id="SLRHL123r4QaGUUrdpwf-10" value="" style="endArrow=none;dashed=1;html=1;dashPattern=1 3;strokeWidth=2;fontSize=16;fontColor=#000000;" parent="6zucgHd-ktdFoNuuFFxh-1" source="SLRHL123r4QaGUUrdpwf-0" target="SLRHL123r4QaGUUrdpwf-6" edge="1">
                    <mxGeometry width="50" height="50" relative="1" as="geometry">
                        <mxPoint x="255" y="329" as="sourcePoint"/>
                        <mxPoint x="305" y="279" as="targetPoint"/>
                    </mxGeometry>
                </mxCell>
                <mxCell id="SLRHL123r4QaGUUrdpwf-11" value="" style="endArrow=none;dashed=1;html=1;dashPattern=1 3;strokeWidth=2;fontSize=16;fontColor=#000000;" parent="6zucgHd-ktdFoNuuFFxh-1" source="SLRHL123r4QaGUUrdpwf-2" target="SLRHL123r4QaGUUrdpwf-6" edge="1">
                    <mxGeometry width="50" height="50" relative="1" as="geometry">
                        <mxPoint x="370.46000000000004" y="59" as="sourcePoint"/>
                        <mxPoint x="465.0999999999999" y="87" as="targetPoint"/>
                    </mxGeometry>
                </mxCell>
                <mxCell id="SLRHL123r4QaGUUrdpwf-12" value="根据不同 type 返回不同的 Product 子类" style="shape=note;strokeWidth=2;fontSize=14;size=20;whiteSpace=wrap;html=1;fillColor=#fff2cc;strokeColor=#d6b656;align=left;" parent="6zucgHd-ktdFoNuuFFxh-1" vertex="1">
                    <mxGeometry x="754" y="69" width="162" height="80" as="geometry"/>
                </mxCell>
                <mxCell id="SLRHL123r4QaGUUrdpwf-13" value="&lt;&lt;abstract&gt;&gt;&#10;Product" style="swimlane;fontStyle=1;align=center;verticalAlign=top;childLayout=stackLayout;horizontal=1;startSize=46;horizontalStack=0;resizeParent=1;resizeParentMax=0;resizeLast=0;collapsible=1;marginBottom=0;fontSize=16;" parent="6zucgHd-ktdFoNuuFFxh-1" vertex="1">
                    <mxGeometry x="76" y="417" width="160" height="54" as="geometry"/>
                </mxCell>
                <mxCell id="SLRHL123r4QaGUUrdpwf-14" value="" style="line;strokeWidth=1;fillColor=none;align=left;verticalAlign=middle;spacingTop=-1;spacingLeft=3;spacingRight=3;rotatable=0;labelPosition=right;points=[];portConstraint=eastwest;fontSize=16;" parent="SLRHL123r4QaGUUrdpwf-13" vertex="1">
                    <mxGeometry y="46" width="160" height="8" as="geometry"/>
                </mxCell>
                <mxCell id="SLRHL123r4QaGUUrdpwf-15" value="OneProduct" style="swimlane;fontStyle=1;align=center;verticalAlign=top;childLayout=stackLayout;horizontal=1;startSize=26;horizontalStack=0;resizeParent=1;resizeParentMax=0;resizeLast=0;collapsible=1;marginBottom=0;fontSize=16;" parent="6zucgHd-ktdFoNuuFFxh-1" vertex="1">
                    <mxGeometry x="273" y="350" width="160" height="34" as="geometry"/>
                </mxCell>
                <mxCell id="SLRHL123r4QaGUUrdpwf-16" value="" style="line;strokeWidth=1;fillColor=none;align=left;verticalAlign=middle;spacingTop=-1;spacingLeft=3;spacingRight=3;rotatable=0;labelPosition=right;points=[];portConstraint=eastwest;fontSize=16;" parent="SLRHL123r4QaGUUrdpwf-15" vertex="1">
                    <mxGeometry y="26" width="160" height="8" as="geometry"/>
                </mxCell>
                <mxCell id="SLRHL123r4QaGUUrdpwf-17" value="TwoProduct" style="swimlane;fontStyle=1;align=center;verticalAlign=top;childLayout=stackLayout;horizontal=1;startSize=26;horizontalStack=0;resizeParent=1;resizeParentMax=0;resizeLast=0;collapsible=1;marginBottom=0;fontSize=16;" parent="6zucgHd-ktdFoNuuFFxh-1" vertex="1">
                    <mxGeometry x="271" y="491" width="160" height="34" as="geometry"/>
                </mxCell>
                <mxCell id="SLRHL123r4QaGUUrdpwf-18" value="" style="line;strokeWidth=1;fillColor=none;align=left;verticalAlign=middle;spacingTop=-1;spacingLeft=3;spacingRight=3;rotatable=0;labelPosition=right;points=[];portConstraint=eastwest;fontSize=16;" parent="SLRHL123r4QaGUUrdpwf-17" vertex="1">
                    <mxGeometry y="26" width="160" height="8" as="geometry"/>
                </mxCell>
                <mxCell id="SLRHL123r4QaGUUrdpwf-19" value="Extends" style="endArrow=block;endSize=16;endFill=0;html=1;strokeWidth=2;fontSize=16;" parent="6zucgHd-ktdFoNuuFFxh-1" source="SLRHL123r4QaGUUrdpwf-17" target="SLRHL123r4QaGUUrdpwf-13" edge="1">
                    <mxGeometry x="-0.3691" y="13" width="160" relative="1" as="geometry">
                        <mxPoint x="113" y="564" as="sourcePoint"/>
                        <mxPoint x="273" y="564" as="targetPoint"/>
                        <Array as="points">
                            <mxPoint x="156" y="508"/>
                        </Array>
                        <mxPoint as="offset"/>
                    </mxGeometry>
                </mxCell>
                <mxCell id="SLRHL123r4QaGUUrdpwf-20" value="Extends" style="endArrow=block;endSize=16;endFill=0;html=1;strokeWidth=2;fontSize=16;" parent="6zucgHd-ktdFoNuuFFxh-1" source="SLRHL123r4QaGUUrdpwf-15" target="SLRHL123r4QaGUUrdpwf-13" edge="1">
                    <mxGeometry x="-0.4765" y="15" width="160" relative="1" as="geometry">
                        <mxPoint x="281" y="518" as="sourcePoint"/>
                        <mxPoint x="165.21518987341767" y="456" as="targetPoint"/>
                        <Array as="points">
                            <mxPoint x="155" y="366"/>
                        </Array>
                        <mxPoint as="offset"/>
                    </mxGeometry>
                </mxCell>
                <mxCell id="SLRHL123r4QaGUUrdpwf-21" value="&lt;&lt;abstract&gt;&gt;&#10;ProductFactory" style="swimlane;fontStyle=1;align=center;verticalAlign=top;childLayout=stackLayout;horizontal=1;startSize=46;horizontalStack=0;resizeParent=1;resizeParentMax=0;resizeLast=0;collapsible=1;marginBottom=0;fontSize=16;" parent="6zucgHd-ktdFoNuuFFxh-1" vertex="1">
                    <mxGeometry x="842" y="388" width="269" height="80" as="geometry"/>
                </mxCell>
                <mxCell id="SLRHL123r4QaGUUrdpwf-22" value="" style="line;strokeWidth=1;fillColor=none;align=left;verticalAlign=middle;spacingTop=-1;spacingLeft=3;spacingRight=3;rotatable=0;labelPosition=right;points=[];portConstraint=eastwest;fontSize=16;" parent="SLRHL123r4QaGUUrdpwf-21" vertex="1">
                    <mxGeometry y="46" width="269" height="8" as="geometry"/>
                </mxCell>
                <mxCell id="SLRHL123r4QaGUUrdpwf-23" value="abstract Product createProduct();" style="text;strokeColor=none;fillColor=none;align=left;verticalAlign=top;spacingLeft=4;spacingRight=4;overflow=hidden;rotatable=0;points=[[0,0.5],[1,0.5]];portConstraint=eastwest;fontSize=16;" parent="SLRHL123r4QaGUUrdpwf-21" vertex="1">
                    <mxGeometry y="54" width="269" height="26" as="geometry"/>
                </mxCell>
                <mxCell id="SLRHL123r4QaGUUrdpwf-24" value="OneProductFactory" style="swimlane;fontStyle=1;align=center;verticalAlign=top;childLayout=stackLayout;horizontal=1;startSize=30;horizontalStack=0;resizeParent=1;resizeParentMax=0;resizeLast=0;collapsible=1;marginBottom=0;fontSize=16;" parent="6zucgHd-ktdFoNuuFFxh-1" vertex="1">
                    <mxGeometry x="545" y="314" width="269" height="64" as="geometry"/>
                </mxCell>
                <mxCell id="SLRHL123r4QaGUUrdpwf-25" value="" style="line;strokeWidth=1;fillColor=none;align=left;verticalAlign=middle;spacingTop=-1;spacingLeft=3;spacingRight=3;rotatable=0;labelPosition=right;points=[];portConstraint=eastwest;fontSize=16;" parent="SLRHL123r4QaGUUrdpwf-24" vertex="1">
                    <mxGeometry y="30" width="269" height="8" as="geometry"/>
                </mxCell>
                <mxCell id="SLRHL123r4QaGUUrdpwf-26" value="Product createProduct();" style="text;strokeColor=none;fillColor=none;align=left;verticalAlign=top;spacingLeft=4;spacingRight=4;overflow=hidden;rotatable=0;points=[[0,0.5],[1,0.5]];portConstraint=eastwest;fontSize=16;" parent="SLRHL123r4QaGUUrdpwf-24" vertex="1">
                    <mxGeometry y="38" width="269" height="26" as="geometry"/>
                </mxCell>
                <mxCell id="SLRHL123r4QaGUUrdpwf-27" value="TwoProductFactory" style="swimlane;fontStyle=1;align=center;verticalAlign=top;childLayout=stackLayout;horizontal=1;startSize=30;horizontalStack=0;resizeParent=1;resizeParentMax=0;resizeLast=0;collapsible=1;marginBottom=0;fontSize=16;" parent="6zucgHd-ktdFoNuuFFxh-1" vertex="1">
                    <mxGeometry x="545" y="477" width="269" height="64" as="geometry"/>
                </mxCell>
                <mxCell id="SLRHL123r4QaGUUrdpwf-28" value="" style="line;strokeWidth=1;fillColor=none;align=left;verticalAlign=middle;spacingTop=-1;spacingLeft=3;spacingRight=3;rotatable=0;labelPosition=right;points=[];portConstraint=eastwest;fontSize=16;" parent="SLRHL123r4QaGUUrdpwf-27" vertex="1">
                    <mxGeometry y="30" width="269" height="8" as="geometry"/>
                </mxCell>
                <mxCell id="SLRHL123r4QaGUUrdpwf-29" value="Product createProduct();" style="text;strokeColor=none;fillColor=none;align=left;verticalAlign=top;spacingLeft=4;spacingRight=4;overflow=hidden;rotatable=0;points=[[0,0.5],[1,0.5]];portConstraint=eastwest;fontSize=16;" parent="SLRHL123r4QaGUUrdpwf-27" vertex="1">
                    <mxGeometry y="38" width="269" height="26" as="geometry"/>
                </mxCell>
                <mxCell id="SLRHL123r4QaGUUrdpwf-30" value="Extends" style="endArrow=block;endSize=16;endFill=0;html=1;strokeWidth=2;fontSize=16;" parent="6zucgHd-ktdFoNuuFFxh-1" source="SLRHL123r4QaGUUrdpwf-24" target="SLRHL123r4QaGUUrdpwf-21" edge="1">
                    <mxGeometry x="-0.4765" y="15" width="160" relative="1" as="geometry">
                        <mxPoint x="269" y="377.5959595959596" as="sourcePoint"/>
                        <mxPoint x="151.6538461538462" y="428" as="targetPoint"/>
                        <Array as="points">
                            <mxPoint x="977" y="348"/>
                        </Array>
                        <mxPoint as="offset"/>
                    </mxGeometry>
                </mxCell>
                <mxCell id="SLRHL123r4QaGUUrdpwf-31" value="Extends" style="endArrow=block;endSize=16;endFill=0;html=1;strokeWidth=2;fontSize=16;" parent="6zucgHd-ktdFoNuuFFxh-1" source="SLRHL123r4QaGUUrdpwf-27" target="SLRHL123r4QaGUUrdpwf-21" edge="1">
                    <mxGeometry x="-0.4765" y="15" width="160" relative="1" as="geometry">
                        <mxPoint x="824" y="356.90420168067226" as="sourcePoint"/>
                        <mxPoint x="986.75" y="398" as="targetPoint"/>
                        <Array as="points">
                            <mxPoint x="980" y="512"/>
                        </Array>
                        <mxPoint as="offset"/>
                    </mxGeometry>
                </mxCell>
                <mxCell id="SLRHL123r4QaGUUrdpwf-32" value="" style="endArrow=none;dashed=1;html=1;dashPattern=1 3;strokeWidth=2;fontSize=16;fontColor=#000000;" parent="6zucgHd-ktdFoNuuFFxh-1" source="SLRHL123r4QaGUUrdpwf-15" target="SLRHL123r4QaGUUrdpwf-24" edge="1">
                    <mxGeometry width="50" height="50" relative="1" as="geometry">
                        <mxPoint x="450.85384615384646" y="132" as="sourcePoint"/>
                        <mxPoint x="539" y="112.99668325041466" as="targetPoint"/>
                    </mxGeometry>
                </mxCell>
                <mxCell id="SLRHL123r4QaGUUrdpwf-33" value="" style="endArrow=none;dashed=1;html=1;dashPattern=1 3;strokeWidth=2;fontSize=16;fontColor=#000000;" parent="6zucgHd-ktdFoNuuFFxh-1" source="SLRHL123r4QaGUUrdpwf-17" target="SLRHL123r4QaGUUrdpwf-27" edge="1">
                    <mxGeometry width="50" height="50" relative="1" as="geometry">
                        <mxPoint x="443" y="371.85451761102604" as="sourcePoint"/>
                        <mxPoint x="555" y="364.6508422664624" as="targetPoint"/>
                    </mxGeometry>
                </mxCell>
                <mxCell id="SLRHL123r4QaGUUrdpwf-34" value="&lt;&lt;abstract&gt;&gt;&#10;ProductA" style="swimlane;fontStyle=1;align=center;verticalAlign=top;childLayout=stackLayout;horizontal=1;startSize=46;horizontalStack=0;resizeParent=1;resizeParentMax=0;resizeLast=0;collapsible=1;marginBottom=0;fontSize=16;" parent="6zucgHd-ktdFoNuuFFxh-1" vertex="1">
                    <mxGeometry x="108" y="711" width="160" height="54" as="geometry"/>
                </mxCell>
                <mxCell id="SLRHL123r4QaGUUrdpwf-35" value="" style="line;strokeWidth=1;fillColor=none;align=left;verticalAlign=middle;spacingTop=-1;spacingLeft=3;spacingRight=3;rotatable=0;labelPosition=right;points=[];portConstraint=eastwest;fontSize=16;" parent="SLRHL123r4QaGUUrdpwf-34" vertex="1">
                    <mxGeometry y="46" width="160" height="8" as="geometry"/>
                </mxCell>
                <mxCell id="SLRHL123r4QaGUUrdpwf-36" value="ProductA1" style="swimlane;fontStyle=1;align=center;verticalAlign=top;childLayout=stackLayout;horizontal=1;startSize=26;horizontalStack=0;resizeParent=1;resizeParentMax=0;resizeLast=0;collapsible=1;marginBottom=0;fontSize=16;" parent="6zucgHd-ktdFoNuuFFxh-1" vertex="1">
                    <mxGeometry x="305" y="644" width="160" height="34" as="geometry"/>
                </mxCell>
                <mxCell id="SLRHL123r4QaGUUrdpwf-37" value="" style="line;strokeWidth=1;fillColor=none;align=left;verticalAlign=middle;spacingTop=-1;spacingLeft=3;spacingRight=3;rotatable=0;labelPosition=right;points=[];portConstraint=eastwest;fontSize=16;" parent="SLRHL123r4QaGUUrdpwf-36" vertex="1">
                    <mxGeometry y="26" width="160" height="8" as="geometry"/>
                </mxCell>
                <mxCell id="SLRHL123r4QaGUUrdpwf-38" value="ProductA2" style="swimlane;fontStyle=1;align=center;verticalAlign=top;childLayout=stackLayout;horizontal=1;startSize=26;horizontalStack=0;resizeParent=1;resizeParentMax=0;resizeLast=0;collapsible=1;marginBottom=0;fontSize=16;" parent="6zucgHd-ktdFoNuuFFxh-1" vertex="1">
                    <mxGeometry x="303" y="785" width="160" height="34" as="geometry"/>
                </mxCell>
                <mxCell id="SLRHL123r4QaGUUrdpwf-39" value="" style="line;strokeWidth=1;fillColor=none;align=left;verticalAlign=middle;spacingTop=-1;spacingLeft=3;spacingRight=3;rotatable=0;labelPosition=right;points=[];portConstraint=eastwest;fontSize=16;" parent="SLRHL123r4QaGUUrdpwf-38" vertex="1">
                    <mxGeometry y="26" width="160" height="8" as="geometry"/>
                </mxCell>
                <mxCell id="SLRHL123r4QaGUUrdpwf-40" value="Extends" style="endArrow=block;endSize=16;endFill=0;html=1;strokeWidth=2;fontSize=16;" parent="6zucgHd-ktdFoNuuFFxh-1" source="SLRHL123r4QaGUUrdpwf-38" target="SLRHL123r4QaGUUrdpwf-34" edge="1">
                    <mxGeometry x="-0.3691" y="13" width="160" relative="1" as="geometry">
                        <mxPoint x="145" y="858" as="sourcePoint"/>
                        <mxPoint x="305" y="858" as="targetPoint"/>
                        <Array as="points">
                            <mxPoint x="188" y="802"/>
                        </Array>
                        <mxPoint as="offset"/>
                    </mxGeometry>
                </mxCell>
                <mxCell id="SLRHL123r4QaGUUrdpwf-41" value="Extends" style="endArrow=block;endSize=16;endFill=0;html=1;strokeWidth=2;fontSize=16;" parent="6zucgHd-ktdFoNuuFFxh-1" source="SLRHL123r4QaGUUrdpwf-36" target="SLRHL123r4QaGUUrdpwf-34" edge="1">
                    <mxGeometry x="-0.4765" y="15" width="160" relative="1" as="geometry">
                        <mxPoint x="313" y="812" as="sourcePoint"/>
                        <mxPoint x="197.21518987341767" y="750" as="targetPoint"/>
                        <Array as="points">
                            <mxPoint x="187" y="660"/>
                        </Array>
                        <mxPoint as="offset"/>
                    </mxGeometry>
                </mxCell>
                <mxCell id="SLRHL123r4QaGUUrdpwf-42" value="&lt;&lt;abstract&gt;&gt;&#10;AbstractFactory" style="swimlane;fontStyle=1;align=center;verticalAlign=top;childLayout=stackLayout;horizontal=1;startSize=46;horizontalStack=0;resizeParent=1;resizeParentMax=0;resizeLast=0;collapsible=1;marginBottom=0;fontSize=16;" parent="6zucgHd-ktdFoNuuFFxh-1" vertex="1">
                    <mxGeometry x="873" y="795" width="269" height="106" as="geometry"/>
                </mxCell>
                <mxCell id="SLRHL123r4QaGUUrdpwf-43" value="" style="line;strokeWidth=1;fillColor=none;align=left;verticalAlign=middle;spacingTop=-1;spacingLeft=3;spacingRight=3;rotatable=0;labelPosition=right;points=[];portConstraint=eastwest;fontSize=16;" parent="SLRHL123r4QaGUUrdpwf-42" vertex="1">
                    <mxGeometry y="46" width="269" height="8" as="geometry"/>
                </mxCell>
                <mxCell id="SLRHL123r4QaGUUrdpwf-44" value="abstract ProductA createProductA();&#10;abstract ProductB createProductB();" style="text;strokeColor=none;fillColor=none;align=left;verticalAlign=top;spacingLeft=4;spacingRight=4;overflow=hidden;rotatable=0;points=[[0,0.5],[1,0.5]];portConstraint=eastwest;fontSize=16;" parent="SLRHL123r4QaGUUrdpwf-42" vertex="1">
                    <mxGeometry y="54" width="269" height="52" as="geometry"/>
                </mxCell>
                <mxCell id="SLRHL123r4QaGUUrdpwf-45" value="Factory1" style="swimlane;fontStyle=1;align=center;verticalAlign=top;childLayout=stackLayout;horizontal=1;startSize=30;horizontalStack=0;resizeParent=1;resizeParentMax=0;resizeLast=0;collapsible=1;marginBottom=0;fontSize=16;" parent="6zucgHd-ktdFoNuuFFxh-1" vertex="1">
                    <mxGeometry x="566" y="668" width="269" height="91" as="geometry"/>
                </mxCell>
                <mxCell id="SLRHL123r4QaGUUrdpwf-46" value="" style="line;strokeWidth=1;fillColor=none;align=left;verticalAlign=middle;spacingTop=-1;spacingLeft=3;spacingRight=3;rotatable=0;labelPosition=right;points=[];portConstraint=eastwest;fontSize=16;" parent="SLRHL123r4QaGUUrdpwf-45" vertex="1">
                    <mxGeometry y="30" width="269" height="8" as="geometry"/>
                </mxCell>
                <mxCell id="SLRHL123r4QaGUUrdpwf-47" value="ProductA createProductA();&#10;ProductB createProductB();" style="text;strokeColor=none;fillColor=none;align=left;verticalAlign=top;spacingLeft=4;spacingRight=4;overflow=hidden;rotatable=0;points=[[0,0.5],[1,0.5]];portConstraint=eastwest;fontSize=16;" parent="SLRHL123r4QaGUUrdpwf-45" vertex="1">
                    <mxGeometry y="38" width="269" height="53" as="geometry"/>
                </mxCell>
                <mxCell id="SLRHL123r4QaGUUrdpwf-48" value="Factory2" style="swimlane;fontStyle=1;align=center;verticalAlign=top;childLayout=stackLayout;horizontal=1;startSize=30;horizontalStack=0;resizeParent=1;resizeParentMax=0;resizeLast=0;collapsible=1;marginBottom=0;fontSize=16;" parent="6zucgHd-ktdFoNuuFFxh-1" vertex="1">
                    <mxGeometry x="563" y="932" width="269" height="90" as="geometry"/>
                </mxCell>
                <mxCell id="SLRHL123r4QaGUUrdpwf-49" value="" style="line;strokeWidth=1;fillColor=none;align=left;verticalAlign=middle;spacingTop=-1;spacingLeft=3;spacingRight=3;rotatable=0;labelPosition=right;points=[];portConstraint=eastwest;fontSize=16;" parent="SLRHL123r4QaGUUrdpwf-48" vertex="1">
                    <mxGeometry y="30" width="269" height="8" as="geometry"/>
                </mxCell>
                <mxCell id="SLRHL123r4QaGUUrdpwf-50" value="ProductA createProductA();&#10;ProductB createProductB();" style="text;strokeColor=none;fillColor=none;align=left;verticalAlign=top;spacingLeft=4;spacingRight=4;overflow=hidden;rotatable=0;points=[[0,0.5],[1,0.5]];portConstraint=eastwest;fontSize=16;" parent="SLRHL123r4QaGUUrdpwf-48" vertex="1">
                    <mxGeometry y="38" width="269" height="52" as="geometry"/>
                </mxCell>
                <mxCell id="SLRHL123r4QaGUUrdpwf-51" value="Extends" style="endArrow=block;endSize=16;endFill=0;html=1;strokeWidth=2;fontSize=16;" parent="6zucgHd-ktdFoNuuFFxh-1" source="SLRHL123r4QaGUUrdpwf-45" target="SLRHL123r4QaGUUrdpwf-42" edge="1">
                    <mxGeometry x="-0.4765" y="15" width="160" relative="1" as="geometry">
                        <mxPoint x="301" y="671.5959595959596" as="sourcePoint"/>
                        <mxPoint x="183.6538461538462" y="722" as="targetPoint"/>
                        <Array as="points">
                            <mxPoint x="1008" y="714"/>
                        </Array>
                        <mxPoint as="offset"/>
                    </mxGeometry>
                </mxCell>
                <mxCell id="SLRHL123r4QaGUUrdpwf-52" value="Extends" style="endArrow=block;endSize=16;endFill=0;html=1;strokeWidth=2;fontSize=16;" parent="6zucgHd-ktdFoNuuFFxh-1" source="SLRHL123r4QaGUUrdpwf-48" target="SLRHL123r4QaGUUrdpwf-42" edge="1">
                    <mxGeometry x="-0.4765" y="15" width="160" relative="1" as="geometry">
                        <mxPoint x="856" y="650.9042016806723" as="sourcePoint"/>
                        <mxPoint x="1018.75" y="692" as="targetPoint"/>
                        <Array as="points">
                            <mxPoint x="1009" y="977"/>
                        </Array>
                        <mxPoint as="offset"/>
                    </mxGeometry>
                </mxCell>
                <mxCell id="SLRHL123r4QaGUUrdpwf-53" value="" style="endArrow=none;dashed=1;html=1;dashPattern=1 3;strokeWidth=2;fontSize=16;fontColor=#000000;strokeColor=#6666FF;" parent="6zucgHd-ktdFoNuuFFxh-1" source="SLRHL123r4QaGUUrdpwf-36" target="SLRHL123r4QaGUUrdpwf-45" edge="1">
                    <mxGeometry width="50" height="50" relative="1" as="geometry">
                        <mxPoint x="482.85384615384646" y="426" as="sourcePoint"/>
                        <mxPoint x="571" y="406.99668325041466" as="targetPoint"/>
                    </mxGeometry>
                </mxCell>
                <mxCell id="SLRHL123r4QaGUUrdpwf-54" value="" style="endArrow=none;dashed=1;html=1;dashPattern=1 3;strokeWidth=2;fontSize=16;fontColor=#000000;strokeColor=#FF6666;" parent="6zucgHd-ktdFoNuuFFxh-1" source="SLRHL123r4QaGUUrdpwf-38" target="SLRHL123r4QaGUUrdpwf-48" edge="1">
                    <mxGeometry width="50" height="50" relative="1" as="geometry">
                        <mxPoint x="475" y="665.854517611026" as="sourcePoint"/>
                        <mxPoint x="587" y="658.6508422664624" as="targetPoint"/>
                    </mxGeometry>
                </mxCell>
                <mxCell id="SLRHL123r4QaGUUrdpwf-55" value="&lt;&lt;abstract&gt;&gt;&#10;ProductB" style="swimlane;fontStyle=1;align=center;verticalAlign=top;childLayout=stackLayout;horizontal=1;startSize=46;horizontalStack=0;resizeParent=1;resizeParentMax=0;resizeLast=0;collapsible=1;marginBottom=0;fontSize=16;" parent="6zucgHd-ktdFoNuuFFxh-1" vertex="1">
                    <mxGeometry x="103" y="922" width="160" height="54" as="geometry"/>
                </mxCell>
                <mxCell id="SLRHL123r4QaGUUrdpwf-56" value="" style="line;strokeWidth=1;fillColor=none;align=left;verticalAlign=middle;spacingTop=-1;spacingLeft=3;spacingRight=3;rotatable=0;labelPosition=right;points=[];portConstraint=eastwest;fontSize=16;" parent="SLRHL123r4QaGUUrdpwf-55" vertex="1">
                    <mxGeometry y="46" width="160" height="8" as="geometry"/>
                </mxCell>
                <mxCell id="SLRHL123r4QaGUUrdpwf-57" value="ProductB1" style="swimlane;fontStyle=1;align=center;verticalAlign=top;childLayout=stackLayout;horizontal=1;startSize=26;horizontalStack=0;resizeParent=1;resizeParentMax=0;resizeLast=0;collapsible=1;marginBottom=0;fontSize=16;" parent="6zucgHd-ktdFoNuuFFxh-1" vertex="1">
                    <mxGeometry x="300" y="855" width="160" height="34" as="geometry"/>
                </mxCell>
                <mxCell id="SLRHL123r4QaGUUrdpwf-58" value="" style="line;strokeWidth=1;fillColor=none;align=left;verticalAlign=middle;spacingTop=-1;spacingLeft=3;spacingRight=3;rotatable=0;labelPosition=right;points=[];portConstraint=eastwest;fontSize=16;" parent="SLRHL123r4QaGUUrdpwf-57" vertex="1">
                    <mxGeometry y="26" width="160" height="8" as="geometry"/>
                </mxCell>
                <mxCell id="SLRHL123r4QaGUUrdpwf-59" value="ProductB2" style="swimlane;fontStyle=1;align=center;verticalAlign=top;childLayout=stackLayout;horizontal=1;startSize=26;horizontalStack=0;resizeParent=1;resizeParentMax=0;resizeLast=0;collapsible=1;marginBottom=0;fontSize=16;" parent="6zucgHd-ktdFoNuuFFxh-1" vertex="1">
                    <mxGeometry x="298" y="996" width="160" height="34" as="geometry"/>
                </mxCell>
                <mxCell id="SLRHL123r4QaGUUrdpwf-60" value="" style="line;strokeWidth=1;fillColor=none;align=left;verticalAlign=middle;spacingTop=-1;spacingLeft=3;spacingRight=3;rotatable=0;labelPosition=right;points=[];portConstraint=eastwest;fontSize=16;" parent="SLRHL123r4QaGUUrdpwf-59" vertex="1">
                    <mxGeometry y="26" width="160" height="8" as="geometry"/>
                </mxCell>
                <mxCell id="SLRHL123r4QaGUUrdpwf-61" value="Extends" style="endArrow=block;endSize=16;endFill=0;html=1;strokeWidth=2;fontSize=16;" parent="6zucgHd-ktdFoNuuFFxh-1" source="SLRHL123r4QaGUUrdpwf-59" target="SLRHL123r4QaGUUrdpwf-55" edge="1">
                    <mxGeometry x="-0.3691" y="13" width="160" relative="1" as="geometry">
                        <mxPoint x="140" y="1069" as="sourcePoint"/>
                        <mxPoint x="300" y="1069" as="targetPoint"/>
                        <Array as="points">
                            <mxPoint x="183" y="1013"/>
                        </Array>
                        <mxPoint as="offset"/>
                    </mxGeometry>
                </mxCell>
                <mxCell id="SLRHL123r4QaGUUrdpwf-62" value="Extends" style="endArrow=block;endSize=16;endFill=0;html=1;strokeWidth=2;fontSize=16;" parent="6zucgHd-ktdFoNuuFFxh-1" source="SLRHL123r4QaGUUrdpwf-57" target="SLRHL123r4QaGUUrdpwf-55" edge="1">
                    <mxGeometry x="-0.4765" y="15" width="160" relative="1" as="geometry">
                        <mxPoint x="308" y="1023" as="sourcePoint"/>
                        <mxPoint x="192.21518987341767" y="961" as="targetPoint"/>
                        <Array as="points">
                            <mxPoint x="182" y="871"/>
                        </Array>
                        <mxPoint as="offset"/>
                    </mxGeometry>
                </mxCell>
                <mxCell id="SLRHL123r4QaGUUrdpwf-63" value="" style="endArrow=none;dashed=1;html=1;dashPattern=1 3;strokeWidth=2;fontSize=16;fontColor=#000000;strokeColor=#6666FF;" parent="6zucgHd-ktdFoNuuFFxh-1" source="SLRHL123r4QaGUUrdpwf-57" target="SLRHL123r4QaGUUrdpwf-45" edge="1">
                    <mxGeometry width="50" height="50" relative="1" as="geometry">
                        <mxPoint x="475" y="684.312202852615" as="sourcePoint"/>
                        <mxPoint x="576" y="701.1188589540411" as="targetPoint"/>
                    </mxGeometry>
                </mxCell>
                <mxCell id="SLRHL123r4QaGUUrdpwf-64" value="" style="endArrow=none;dashed=1;html=1;dashPattern=1 3;strokeWidth=2;fontSize=16;fontColor=#000000;entryX=0.319;entryY=0.288;entryDx=0;entryDy=0;entryPerimeter=0;strokeColor=#FF6666;" parent="6zucgHd-ktdFoNuuFFxh-1" source="SLRHL123r4QaGUUrdpwf-59" target="SLRHL123r4QaGUUrdpwf-48" edge="1">
                    <mxGeometry width="50" height="50" relative="1" as="geometry">
                        <mxPoint x="423.55142857142846" y="829" as="sourcePoint"/>
                        <mxPoint x="626.6285714285714" y="942" as="targetPoint"/>
                    </mxGeometry>
                </mxCell>
            </root>
        </mxGraphModel>
    </diagram>
    <diagram id="3xQoNmtVhwdaT4kwrVu6" name="代理模式">
        <mxGraphModel dx="837" dy="615" grid="0" gridSize="10" guides="1" tooltips="1" connect="1" arrows="1" fold="1" page="1" pageScale="1" pageWidth="827" pageHeight="1169" math="0" shadow="0">
            <root>
                <mxCell id="0"/>
                <mxCell id="1" parent="0"/>
                <mxCell id="3" value="«interface»&#10;UserService" style="swimlane;fontStyle=1;align=center;verticalAlign=top;childLayout=stackLayout;horizontal=1;startSize=50;horizontalStack=0;resizeParent=1;resizeParentMax=0;resizeLast=0;collapsible=1;marginBottom=0;fontSize=16;" parent="1" vertex="1">
                    <mxGeometry x="190" y="220" width="160" height="100" as="geometry">
                        <mxRectangle x="330" y="270" width="130" height="40" as="alternateBounds"/>
                    </mxGeometry>
                </mxCell>
                <mxCell id="5" value="" style="line;strokeWidth=1;fillColor=none;align=left;verticalAlign=middle;spacingTop=-1;spacingLeft=3;spacingRight=3;rotatable=0;labelPosition=right;points=[];portConstraint=eastwest;fontSize=16;" parent="3" vertex="1">
                    <mxGeometry y="50" width="160" height="18" as="geometry"/>
                </mxCell>
                <mxCell id="6" value="void doWork();" style="text;strokeColor=none;fillColor=none;align=left;verticalAlign=top;spacingLeft=4;spacingRight=4;overflow=hidden;rotatable=0;points=[[0,0.5],[1,0.5]];portConstraint=eastwest;fontSize=16;" parent="3" vertex="1">
                    <mxGeometry y="68" width="160" height="32" as="geometry"/>
                </mxCell>
                <mxCell id="9" value="UserServiceImpl" style="swimlane;fontStyle=1;align=center;verticalAlign=top;childLayout=stackLayout;horizontal=1;startSize=26;horizontalStack=0;resizeParent=1;resizeParentMax=0;resizeLast=0;collapsible=1;marginBottom=0;fontSize=16;" parent="1" vertex="1">
                    <mxGeometry x="190" y="400" width="160" height="70" as="geometry"/>
                </mxCell>
                <mxCell id="11" value="" style="line;strokeWidth=1;fillColor=none;align=left;verticalAlign=middle;spacingTop=-1;spacingLeft=3;spacingRight=3;rotatable=0;labelPosition=right;points=[];portConstraint=eastwest;fontSize=16;" parent="9" vertex="1">
                    <mxGeometry y="26" width="160" height="8" as="geometry"/>
                </mxCell>
                <mxCell id="12" value="public void doWork();" style="text;strokeColor=none;fillColor=none;align=left;verticalAlign=top;spacingLeft=4;spacingRight=4;overflow=hidden;rotatable=0;points=[[0,0.5],[1,0.5]];portConstraint=eastwest;fontSize=16;" parent="9" vertex="1">
                    <mxGeometry y="34" width="160" height="36" as="geometry"/>
                </mxCell>
                <mxCell id="13" value="" style="endArrow=block;startArrow=none;endFill=0;startFill=0;endSize=8;html=1;verticalAlign=bottom;dashed=1;labelBackgroundColor=none;fontSize=16;strokeWidth=2;" parent="1" source="9" target="3" edge="1">
                    <mxGeometry width="160" relative="1" as="geometry">
                        <mxPoint x="300" y="370" as="sourcePoint"/>
                        <mxPoint x="266" y="350" as="targetPoint"/>
                    </mxGeometry>
                </mxCell>
                <mxCell id="22" value="implement" style="edgeLabel;html=1;align=center;verticalAlign=middle;resizable=0;points=[];fontSize=16;" parent="13" vertex="1" connectable="0">
                    <mxGeometry x="-0.295" y="1" relative="1" as="geometry">
                        <mxPoint x="41" y="-12" as="offset"/>
                    </mxGeometry>
                </mxCell>
                <mxCell id="14" value="接口（协议）" style="shape=note;strokeWidth=2;fontSize=16;size=20;whiteSpace=wrap;html=1;fillColor=#fff2cc;strokeColor=#d6b656;fontColor=#666600;" parent="1" vertex="1">
                    <mxGeometry x="360" y="220" width="100" height="52" as="geometry"/>
                </mxCell>
                <mxCell id="16" value="业务实现类&lt;br style=&quot;font-size: 16px;&quot;&gt;被代理类" style="shape=note;strokeWidth=2;fontSize=16;size=20;whiteSpace=wrap;html=1;fillColor=#fff2cc;strokeColor=#d6b656;fontColor=#666600;align=left;" parent="1" vertex="1">
                    <mxGeometry x="190" y="480" width="100" height="52" as="geometry"/>
                </mxCell>
                <mxCell id="17" value="ProxyDemo" style="swimlane;fontStyle=1;align=center;verticalAlign=top;childLayout=stackLayout;horizontal=1;startSize=26;horizontalStack=0;resizeParent=1;resizeParentMax=0;resizeLast=0;collapsible=1;marginBottom=0;fontSize=16;" parent="1" vertex="1">
                    <mxGeometry x="190" y="70" width="160" height="86" as="geometry"/>
                </mxCell>
                <mxCell id="18" value="UserService service;" style="text;strokeColor=none;fillColor=none;align=left;verticalAlign=top;spacingLeft=4;spacingRight=4;overflow=hidden;rotatable=0;points=[[0,0.5],[1,0.5]];portConstraint=eastwest;fontSize=16;" parent="17" vertex="1">
                    <mxGeometry y="26" width="160" height="26" as="geometry"/>
                </mxCell>
                <mxCell id="19" value="" style="line;strokeWidth=1;fillColor=none;align=left;verticalAlign=middle;spacingTop=-1;spacingLeft=3;spacingRight=3;rotatable=0;labelPosition=right;points=[];portConstraint=eastwest;fontSize=16;" parent="17" vertex="1">
                    <mxGeometry y="52" width="160" height="8" as="geometry"/>
                </mxCell>
                <mxCell id="20" value="main();" style="text;strokeColor=none;fillColor=none;align=left;verticalAlign=top;spacingLeft=4;spacingRight=4;overflow=hidden;rotatable=0;points=[[0,0.5],[1,0.5]];portConstraint=eastwest;fontSize=16;" parent="17" vertex="1">
                    <mxGeometry y="60" width="160" height="26" as="geometry"/>
                </mxCell>
                <mxCell id="21" value="" style="endArrow=open;endSize=12;dashed=1;html=1;strokeWidth=2;fontSize=16;" parent="1" source="17" target="3" edge="1">
                    <mxGeometry width="160" relative="1" as="geometry">
                        <mxPoint x="550" y="90" as="sourcePoint"/>
                        <mxPoint x="710" y="90" as="targetPoint"/>
                    </mxGeometry>
                </mxCell>
                <mxCell id="23" value="use" style="edgeLabel;html=1;align=center;verticalAlign=middle;resizable=0;points=[];fontSize=16;" parent="21" vertex="1" connectable="0">
                    <mxGeometry x="-0.3188" y="-3" relative="1" as="geometry">
                        <mxPoint x="23" y="5" as="offset"/>
                    </mxGeometry>
                </mxCell>
                <mxCell id="31" value="UserServiceProxy&#10;" style="swimlane;fontStyle=1;align=center;verticalAlign=top;childLayout=stackLayout;horizontal=1;startSize=26;horizontalStack=0;resizeParent=1;resizeParentMax=0;resizeLast=0;collapsible=1;marginBottom=0;fontSize=16;" parent="1" vertex="1">
                    <mxGeometry x="520" y="382" width="200" height="82" as="geometry"/>
                </mxCell>
                <mxCell id="32" value="UserService service;" style="text;strokeColor=none;fillColor=none;align=left;verticalAlign=top;spacingLeft=4;spacingRight=4;overflow=hidden;rotatable=0;points=[[0,0.5],[1,0.5]];portConstraint=eastwest;fontSize=16;" parent="31" vertex="1">
                    <mxGeometry y="26" width="200" height="22" as="geometry"/>
                </mxCell>
                <mxCell id="33" value="" style="line;strokeWidth=1;fillColor=none;align=left;verticalAlign=middle;spacingTop=-1;spacingLeft=3;spacingRight=3;rotatable=0;labelPosition=right;points=[];portConstraint=eastwest;fontSize=16;" parent="31" vertex="1">
                    <mxGeometry y="48" width="200" height="8" as="geometry"/>
                </mxCell>
                <mxCell id="34" value="public void doWork();" style="text;strokeColor=none;fillColor=none;align=left;verticalAlign=top;spacingLeft=4;spacingRight=4;overflow=hidden;rotatable=0;points=[[0,0.5],[1,0.5]];portConstraint=eastwest;fontSize=16;" parent="31" vertex="1">
                    <mxGeometry y="56" width="200" height="26" as="geometry"/>
                </mxCell>
                <mxCell id="36" value="" style="endArrow=block;startArrow=none;endFill=0;startFill=0;endSize=8;html=1;verticalAlign=bottom;dashed=1;labelBackgroundColor=none;fontSize=16;strokeWidth=2;" parent="1" source="31" target="3" edge="1">
                    <mxGeometry width="160" relative="1" as="geometry">
                        <mxPoint x="280" y="410" as="sourcePoint"/>
                        <mxPoint x="280" y="330" as="targetPoint"/>
                    </mxGeometry>
                </mxCell>
                <mxCell id="37" value="implement" style="edgeLabel;html=1;align=center;verticalAlign=middle;resizable=0;points=[];fontSize=16;" parent="36" vertex="1" connectable="0">
                    <mxGeometry x="-0.295" y="1" relative="1" as="geometry">
                        <mxPoint x="41" y="-12" as="offset"/>
                    </mxGeometry>
                </mxCell>
                <mxCell id="39" value="代理类&lt;br&gt;这里的&amp;nbsp;&lt;span style=&quot;color: rgb(0 , 0 , 0)&quot;&gt;service 实际上是 UserServiceImpl&lt;/span&gt;" style="shape=note;strokeWidth=2;fontSize=16;size=20;whiteSpace=wrap;html=1;fillColor=#fff2cc;strokeColor=#d6b656;fontColor=#666600;align=left;" parent="1" vertex="1">
                    <mxGeometry x="520" y="480" width="190" height="62" as="geometry"/>
                </mxCell>
                <mxCell id="43" value="" style="curved=1;endArrow=classic;html=1;strokeWidth=2;fontSize=16;dashed=1;strokeColor=#00CC66;" parent="1" source="17" target="31" edge="1">
                    <mxGeometry width="50" height="50" relative="1" as="geometry">
                        <mxPoint x="228.54700854700855" y="166" as="sourcePoint"/>
                        <mxPoint x="222.35294117647072" y="410" as="targetPoint"/>
                        <Array as="points">
                            <mxPoint x="510" y="170"/>
                            <mxPoint x="590" y="330"/>
                        </Array>
                    </mxGeometry>
                </mxCell>
                <mxCell id="47" value="实际上调用" style="edgeLabel;html=1;align=center;verticalAlign=middle;resizable=0;points=[];fontSize=16;fontColor=#00CC66;" parent="43" vertex="1" connectable="0">
                    <mxGeometry x="0.0894" y="-8" relative="1" as="geometry">
                        <mxPoint as="offset"/>
                    </mxGeometry>
                </mxCell>
                <mxCell id="44" value="" style="rounded=0;whiteSpace=wrap;html=1;fontSize=16;strokeColor=#b85450;fillColor=#f8cecc;opacity=40;" parent="1" vertex="1">
                    <mxGeometry x="165" y="392" width="210" height="150" as="geometry"/>
                </mxCell>
                <mxCell id="45" value="" style="endArrow=classic;html=1;strokeWidth=2;fontSize=16;exitX=1;exitY=0.5;exitDx=0;exitDy=0;entryX=0;entryY=0.5;entryDx=0;entryDy=0;dashed=1;strokeColor=#00CC66;" parent="1" source="44" target="32" edge="1">
                    <mxGeometry width="50" height="50" relative="1" as="geometry">
                        <mxPoint x="410" y="420" as="sourcePoint"/>
                        <mxPoint x="460" y="370" as="targetPoint"/>
                    </mxGeometry>
                </mxCell>
                <mxCell id="46" value="use" style="edgeLabel;html=1;align=center;verticalAlign=middle;resizable=0;points=[];fontSize=16;fontColor=#00CC66;" parent="45" vertex="1" connectable="0">
                    <mxGeometry x="0.1469" relative="1" as="geometry">
                        <mxPoint x="-8.19" y="15.8" as="offset"/>
                    </mxGeometry>
                </mxCell>
            </root>
        </mxGraphModel>
    </diagram>
    <diagram id="EpWCCZXcVjL8219KiOUe" name="适配器模式">
        <mxGraphModel dx="837" dy="615" grid="0" gridSize="10" guides="1" tooltips="1" connect="1" arrows="1" fold="1" page="1" pageScale="1" pageWidth="827" pageHeight="1169" math="0" shadow="0">
            <root>
                <mxCell id="FH8Z9MhYK6-0d0ScP3j5-0"/>
                <mxCell id="FH8Z9MhYK6-0d0ScP3j5-1" parent="FH8Z9MhYK6-0d0ScP3j5-0"/>
                <mxCell id="FH8Z9MhYK6-0d0ScP3j5-2" value="&lt;&lt;intaface&gt;&gt;&#10;Runnable" style="swimlane;fontStyle=1;align=center;verticalAlign=top;childLayout=stackLayout;horizontal=1;startSize=50;horizontalStack=0;resizeParent=1;resizeParentMax=0;resizeLast=0;collapsible=1;marginBottom=0;fillColor=#ffffff;fontSize=16;opacity=40;" parent="FH8Z9MhYK6-0d0ScP3j5-1" vertex="1">
                    <mxGeometry x="136" y="290" width="160" height="94" as="geometry"/>
                </mxCell>
                <mxCell id="FH8Z9MhYK6-0d0ScP3j5-4" value="" style="line;strokeWidth=1;fillColor=none;align=left;verticalAlign=middle;spacingTop=-1;spacingLeft=3;spacingRight=3;rotatable=0;labelPosition=right;points=[];portConstraint=eastwest;fontSize=16;" parent="FH8Z9MhYK6-0d0ScP3j5-2" vertex="1">
                    <mxGeometry y="50" width="160" height="8" as="geometry"/>
                </mxCell>
                <mxCell id="FH8Z9MhYK6-0d0ScP3j5-5" value="void run();" style="text;strokeColor=none;fillColor=none;align=left;verticalAlign=top;spacingLeft=4;spacingRight=4;overflow=hidden;rotatable=0;points=[[0,0.5],[1,0.5]];portConstraint=eastwest;fontSize=16;" parent="FH8Z9MhYK6-0d0ScP3j5-2" vertex="1">
                    <mxGeometry y="58" width="160" height="36" as="geometry"/>
                </mxCell>
                <mxCell id="A7t2EXDwVW5_52K-lQhO-0" value="MyRunnable" style="swimlane;fontStyle=1;align=center;verticalAlign=top;childLayout=stackLayout;horizontal=1;startSize=30;horizontalStack=0;resizeParent=1;resizeParentMax=0;resizeLast=0;collapsible=1;marginBottom=0;fillColor=#ffffff;fontSize=16;opacity=40;" parent="FH8Z9MhYK6-0d0ScP3j5-1" vertex="1">
                    <mxGeometry x="136" y="470" width="160" height="74" as="geometry"/>
                </mxCell>
                <mxCell id="A7t2EXDwVW5_52K-lQhO-2" value="" style="line;strokeWidth=1;fillColor=none;align=left;verticalAlign=middle;spacingTop=-1;spacingLeft=3;spacingRight=3;rotatable=0;labelPosition=right;points=[];portConstraint=eastwest;fontSize=16;" parent="A7t2EXDwVW5_52K-lQhO-0" vertex="1">
                    <mxGeometry y="30" width="160" height="8" as="geometry"/>
                </mxCell>
                <mxCell id="A7t2EXDwVW5_52K-lQhO-3" value="void run();" style="text;strokeColor=none;fillColor=none;align=left;verticalAlign=top;spacingLeft=4;spacingRight=4;overflow=hidden;rotatable=0;points=[[0,0.5],[1,0.5]];portConstraint=eastwest;fontSize=16;" parent="A7t2EXDwVW5_52K-lQhO-0" vertex="1">
                    <mxGeometry y="38" width="160" height="36" as="geometry"/>
                </mxCell>
                <mxCell id="39IrTd8V18dxu6U070BU-0" value="" style="endArrow=block;startArrow=none;endFill=0;startFill=0;endSize=8;html=1;verticalAlign=bottom;dashed=1;labelBackgroundColor=none;fontSize=16;strokeWidth=2;" parent="FH8Z9MhYK6-0d0ScP3j5-1" source="A7t2EXDwVW5_52K-lQhO-0" target="FH8Z9MhYK6-0d0ScP3j5-2" edge="1">
                    <mxGeometry width="160" relative="1" as="geometry">
                        <mxPoint x="346" y="610" as="sourcePoint"/>
                        <mxPoint x="346" y="530" as="targetPoint"/>
                    </mxGeometry>
                </mxCell>
                <mxCell id="39IrTd8V18dxu6U070BU-1" value="implement" style="edgeLabel;html=1;align=center;verticalAlign=middle;resizable=0;points=[];fontSize=16;" parent="39IrTd8V18dxu6U070BU-0" vertex="1" connectable="0">
                    <mxGeometry x="-0.295" y="1" relative="1" as="geometry">
                        <mxPoint x="41" y="-10" as="offset"/>
                    </mxGeometry>
                </mxCell>
                <mxCell id="39IrTd8V18dxu6U070BU-2" value="Thread" style="swimlane;fontStyle=1;align=center;verticalAlign=top;childLayout=stackLayout;horizontal=1;startSize=26;horizontalStack=0;resizeParent=1;resizeParentMax=0;resizeLast=0;collapsible=1;marginBottom=0;fillColor=#ffffff;fontSize=16;opacity=40;" parent="FH8Z9MhYK6-0d0ScP3j5-1" vertex="1">
                    <mxGeometry x="136" y="100" width="160" height="86" as="geometry"/>
                </mxCell>
                <mxCell id="39IrTd8V18dxu6U070BU-3" value="Runnable runnable" style="text;strokeColor=none;fillColor=none;align=left;verticalAlign=top;spacingLeft=4;spacingRight=4;overflow=hidden;rotatable=0;points=[[0,0.5],[1,0.5]];portConstraint=eastwest;fontSize=16;" parent="39IrTd8V18dxu6U070BU-2" vertex="1">
                    <mxGeometry y="26" width="160" height="26" as="geometry"/>
                </mxCell>
                <mxCell id="39IrTd8V18dxu6U070BU-4" value="" style="line;strokeWidth=1;fillColor=none;align=left;verticalAlign=middle;spacingTop=-1;spacingLeft=3;spacingRight=3;rotatable=0;labelPosition=right;points=[];portConstraint=eastwest;fontSize=16;" parent="39IrTd8V18dxu6U070BU-2" vertex="1">
                    <mxGeometry y="52" width="160" height="8" as="geometry"/>
                </mxCell>
                <mxCell id="39IrTd8V18dxu6U070BU-5" value="void start();" style="text;strokeColor=none;fillColor=none;align=left;verticalAlign=top;spacingLeft=4;spacingRight=4;overflow=hidden;rotatable=0;points=[[0,0.5],[1,0.5]];portConstraint=eastwest;fontSize=16;" parent="39IrTd8V18dxu6U070BU-2" vertex="1">
                    <mxGeometry y="60" width="160" height="26" as="geometry"/>
                </mxCell>
                <mxCell id="39IrTd8V18dxu6U070BU-6" value="use" style="endArrow=open;endSize=12;dashed=1;html=1;strokeColor=#000000;strokeWidth=2;fontSize=16;" parent="FH8Z9MhYK6-0d0ScP3j5-1" source="39IrTd8V18dxu6U070BU-2" target="FH8Z9MhYK6-0d0ScP3j5-2" edge="1">
                    <mxGeometry x="0.0385" y="20" width="160" relative="1" as="geometry">
                        <mxPoint x="366" y="320" as="sourcePoint"/>
                        <mxPoint x="526" y="320" as="targetPoint"/>
                        <mxPoint as="offset"/>
                    </mxGeometry>
                </mxCell>
                <mxCell id="39IrTd8V18dxu6U070BU-7" value="&lt;span style=&quot;font-size: 16px ; background-color: rgb(255 , 242 , 204)&quot;&gt;&lt;font color=&quot;#000000&quot;&gt;start方法使用了传入的 Runnable实现类的对象&lt;/font&gt;&lt;/span&gt;" style="shape=note;strokeWidth=2;fontSize=14;size=20;whiteSpace=wrap;html=1;fillColor=#fff2cc;strokeColor=#d6b656;fontColor=#666600;" parent="FH8Z9MhYK6-0d0ScP3j5-1" vertex="1">
                    <mxGeometry x="6" y="200" width="190" height="70" as="geometry"/>
                </mxCell>
                <mxCell id="39IrTd8V18dxu6U070BU-8" value="&lt;&lt;intaface&gt;&gt;&#10;Callable" style="swimlane;fontStyle=1;align=center;verticalAlign=top;childLayout=stackLayout;horizontal=1;startSize=50;horizontalStack=0;resizeParent=1;resizeParentMax=0;resizeLast=0;collapsible=1;marginBottom=0;fillColor=#ffffff;fontSize=16;opacity=40;" parent="FH8Z9MhYK6-0d0ScP3j5-1" vertex="1">
                    <mxGeometry x="637" y="290" width="160" height="94" as="geometry"/>
                </mxCell>
                <mxCell id="39IrTd8V18dxu6U070BU-9" value="" style="line;strokeWidth=1;fillColor=none;align=left;verticalAlign=middle;spacingTop=-1;spacingLeft=3;spacingRight=3;rotatable=0;labelPosition=right;points=[];portConstraint=eastwest;fontSize=16;" parent="39IrTd8V18dxu6U070BU-8" vertex="1">
                    <mxGeometry y="50" width="160" height="8" as="geometry"/>
                </mxCell>
                <mxCell id="39IrTd8V18dxu6U070BU-10" value="V call();" style="text;strokeColor=none;fillColor=none;align=left;verticalAlign=top;spacingLeft=4;spacingRight=4;overflow=hidden;rotatable=0;points=[[0,0.5],[1,0.5]];portConstraint=eastwest;fontSize=16;" parent="39IrTd8V18dxu6U070BU-8" vertex="1">
                    <mxGeometry y="58" width="160" height="36" as="geometry"/>
                </mxCell>
                <mxCell id="39IrTd8V18dxu6U070BU-11" value="MyCallable" style="swimlane;fontStyle=1;align=center;verticalAlign=top;childLayout=stackLayout;horizontal=1;startSize=30;horizontalStack=0;resizeParent=1;resizeParentMax=0;resizeLast=0;collapsible=1;marginBottom=0;fillColor=#ffffff;fontSize=16;opacity=40;" parent="FH8Z9MhYK6-0d0ScP3j5-1" vertex="1">
                    <mxGeometry x="637" y="470" width="160" height="74" as="geometry"/>
                </mxCell>
                <mxCell id="39IrTd8V18dxu6U070BU-12" value="" style="line;strokeWidth=1;fillColor=none;align=left;verticalAlign=middle;spacingTop=-1;spacingLeft=3;spacingRight=3;rotatable=0;labelPosition=right;points=[];portConstraint=eastwest;fontSize=16;" parent="39IrTd8V18dxu6U070BU-11" vertex="1">
                    <mxGeometry y="30" width="160" height="8" as="geometry"/>
                </mxCell>
                <mxCell id="39IrTd8V18dxu6U070BU-13" value="V call();" style="text;strokeColor=none;fillColor=none;align=left;verticalAlign=top;spacingLeft=4;spacingRight=4;overflow=hidden;rotatable=0;points=[[0,0.5],[1,0.5]];portConstraint=eastwest;fontSize=16;" parent="39IrTd8V18dxu6U070BU-11" vertex="1">
                    <mxGeometry y="38" width="160" height="36" as="geometry"/>
                </mxCell>
                <mxCell id="39IrTd8V18dxu6U070BU-14" value="" style="endArrow=block;startArrow=none;endFill=0;startFill=0;endSize=8;html=1;verticalAlign=bottom;dashed=1;labelBackgroundColor=none;fontSize=16;strokeWidth=2;" parent="FH8Z9MhYK6-0d0ScP3j5-1" source="39IrTd8V18dxu6U070BU-11" target="39IrTd8V18dxu6U070BU-8" edge="1">
                    <mxGeometry width="160" relative="1" as="geometry">
                        <mxPoint x="847" y="610" as="sourcePoint"/>
                        <mxPoint x="847" y="530" as="targetPoint"/>
                    </mxGeometry>
                </mxCell>
                <mxCell id="39IrTd8V18dxu6U070BU-15" value="implement" style="edgeLabel;html=1;align=center;verticalAlign=middle;resizable=0;points=[];fontSize=16;" parent="39IrTd8V18dxu6U070BU-14" vertex="1" connectable="0">
                    <mxGeometry x="-0.295" y="1" relative="1" as="geometry">
                        <mxPoint x="41" y="-10" as="offset"/>
                    </mxGeometry>
                </mxCell>
                <mxCell id="39IrTd8V18dxu6U070BU-16" value="" style="endArrow=open;endSize=12;dashed=1;html=1;strokeWidth=2;fontSize=16;strokeColor=#FF0000;" parent="FH8Z9MhYK6-0d0ScP3j5-1" source="39IrTd8V18dxu6U070BU-2" target="39IrTd8V18dxu6U070BU-8" edge="1">
                    <mxGeometry x="0.0385" y="20" width="160" relative="1" as="geometry">
                        <mxPoint x="346" y="166" as="sourcePoint"/>
                        <mxPoint x="346" y="270" as="targetPoint"/>
                        <mxPoint as="offset"/>
                    </mxGeometry>
                </mxCell>
                <mxCell id="39IrTd8V18dxu6U070BU-17" value="&lt;font color=&quot;#000000&quot;&gt;&lt;span style=&quot;font-size: 16px ; background-color: rgb(255 , 0 , 0)&quot;&gt;Thread 不能直接使用 Callable 类型对象&lt;/span&gt;&lt;/font&gt;" style="shape=note;strokeWidth=2;fontSize=14;size=20;whiteSpace=wrap;html=1;strokeColor=#d6b656;fontColor=#666600;fillColor=#FF0000;align=left;" parent="FH8Z9MhYK6-0d0ScP3j5-1" vertex="1">
                    <mxGeometry x="577" y="200" width="180" height="60" as="geometry"/>
                </mxCell>
                <mxCell id="lY3G8hl8eBd7AWaN_ifi-3" value="FutureTask" style="swimlane;fontStyle=1;align=center;verticalAlign=top;childLayout=stackLayout;horizontal=1;startSize=26;horizontalStack=0;resizeParent=1;resizeParentMax=0;resizeLast=0;collapsible=1;marginBottom=0;fillColor=#ffffff;fontSize=16;opacity=40;" parent="FH8Z9MhYK6-0d0ScP3j5-1" vertex="1">
                    <mxGeometry x="394" y="294" width="160" height="86" as="geometry"/>
                </mxCell>
                <mxCell id="lY3G8hl8eBd7AWaN_ifi-4" value="Callable callable" style="text;strokeColor=none;fillColor=none;align=left;verticalAlign=top;spacingLeft=4;spacingRight=4;overflow=hidden;rotatable=0;points=[[0,0.5],[1,0.5]];portConstraint=eastwest;fontSize=16;" parent="lY3G8hl8eBd7AWaN_ifi-3" vertex="1">
                    <mxGeometry y="26" width="160" height="26" as="geometry"/>
                </mxCell>
                <mxCell id="lY3G8hl8eBd7AWaN_ifi-5" value="" style="line;strokeWidth=1;fillColor=none;align=left;verticalAlign=middle;spacingTop=-1;spacingLeft=3;spacingRight=3;rotatable=0;labelPosition=right;points=[];portConstraint=eastwest;fontSize=16;" parent="lY3G8hl8eBd7AWaN_ifi-3" vertex="1">
                    <mxGeometry y="52" width="160" height="8" as="geometry"/>
                </mxCell>
                <mxCell id="lY3G8hl8eBd7AWaN_ifi-6" value="void start();" style="text;strokeColor=none;fillColor=none;align=left;verticalAlign=top;spacingLeft=4;spacingRight=4;overflow=hidden;rotatable=0;points=[[0,0.5],[1,0.5]];portConstraint=eastwest;fontSize=16;" parent="lY3G8hl8eBd7AWaN_ifi-3" vertex="1">
                    <mxGeometry y="60" width="160" height="26" as="geometry"/>
                </mxCell>
                <mxCell id="lY3G8hl8eBd7AWaN_ifi-7" value="use" style="endArrow=open;endSize=12;dashed=1;html=1;strokeColor=#000000;strokeWidth=2;fontSize=16;" parent="FH8Z9MhYK6-0d0ScP3j5-1" source="lY3G8hl8eBd7AWaN_ifi-3" target="39IrTd8V18dxu6U070BU-8" edge="1">
                    <mxGeometry x="0.0385" y="20" width="160" relative="1" as="geometry">
                        <mxPoint x="226" y="196" as="sourcePoint"/>
                        <mxPoint x="226" y="300" as="targetPoint"/>
                        <mxPoint as="offset"/>
                    </mxGeometry>
                </mxCell>
                <mxCell id="lY3G8hl8eBd7AWaN_ifi-8" value="" style="endArrow=block;startArrow=none;endFill=0;startFill=0;endSize=8;html=1;verticalAlign=bottom;dashed=1;labelBackgroundColor=none;fontSize=16;strokeWidth=2;" parent="FH8Z9MhYK6-0d0ScP3j5-1" source="lY3G8hl8eBd7AWaN_ifi-3" target="FH8Z9MhYK6-0d0ScP3j5-2" edge="1">
                    <mxGeometry width="160" relative="1" as="geometry">
                        <mxPoint x="226" y="480" as="sourcePoint"/>
                        <mxPoint x="226" y="394" as="targetPoint"/>
                    </mxGeometry>
                </mxCell>
                <mxCell id="lY3G8hl8eBd7AWaN_ifi-9" value="implement" style="edgeLabel;html=1;align=center;verticalAlign=middle;resizable=0;points=[];fontSize=16;" parent="lY3G8hl8eBd7AWaN_ifi-8" vertex="1" connectable="0">
                    <mxGeometry x="-0.295" y="1" relative="1" as="geometry">
                        <mxPoint x="-11.060000000000004" y="16" as="offset"/>
                    </mxGeometry>
                </mxCell>
                <mxCell id="lY3G8hl8eBd7AWaN_ifi-10" value="&lt;span style=&quot;color: rgb(0 , 0 , 0) ; font-size: 16px&quot;&gt;FutureTask 是一个适配器。&lt;br&gt;Thread 可以使用&lt;/span&gt;&lt;span style=&quot;color: rgb(0 , 0 , 0) ; font-size: 16px&quot;&gt;FutureTasks&amp;nbsp;，间接使用 Callable&lt;/span&gt;" style="shape=note;strokeWidth=2;fontSize=14;size=20;whiteSpace=wrap;html=1;fillColor=#fff2cc;strokeColor=#d6b656;fontColor=#666600;align=left;" parent="FH8Z9MhYK6-0d0ScP3j5-1" vertex="1">
                    <mxGeometry x="375" y="403" width="230" height="89" as="geometry"/>
                </mxCell>
                <mxCell id="lY3G8hl8eBd7AWaN_ifi-11" value="" style="endArrow=open;endSize=12;dashed=1;html=1;strokeWidth=2;fontSize=16;strokeColor=#00CC66;" parent="FH8Z9MhYK6-0d0ScP3j5-1" source="39IrTd8V18dxu6U070BU-2" target="lY3G8hl8eBd7AWaN_ifi-3" edge="1">
                    <mxGeometry x="0.0385" y="20" width="160" relative="1" as="geometry">
                        <mxPoint x="227" y="196.99804391217563" as="sourcePoint"/>
                        <mxPoint x="568" y="329.0419560878245" as="targetPoint"/>
                        <mxPoint as="offset"/>
                    </mxGeometry>
                </mxCell>
            </root>
        </mxGraphModel>
    </diagram>
</mxfile>